<?xml version="1.0" encoding="utf-8"?>
<!-- Generator: Adobe Illustrator 24.0.2, SVG Export Plug-In . SVG Version: 6.00 Build 0)  -->
<svg version="1.1" xmlns="http://www.w3.org/2000/svg" xmlns:xlink="http://www.w3.org/1999/xlink" x="0px" y="0px"
	 viewBox="0 0 1366 768" style="enable-background:new 0 0 1366 768;" xml:space="preserve">
<style type="text/css">
	.st0{fill:none;}
	.st1{display:none;}
	.st2{display:inline;}
	.st3{fill:#E6E6E6;stroke:#000000;stroke-width:8;stroke-linecap:round;stroke-linejoin:round;stroke-miterlimit:10;}
	.st4{fill:#FFFFFF;stroke:#000000;stroke-width:8;stroke-linecap:round;stroke-linejoin:round;stroke-miterlimit:10;}
	.st5{opacity:0.15;fill:url(#SVGID_1_);}
	.st6{fill:none;stroke:#000000;stroke-width:8;stroke-linecap:round;stroke-linejoin:round;stroke-miterlimit:10;}
</style>
<g id="First_Try">
	<g>
		<path d="M827.13,446.69l3.78,3.75l-3.78,3.75l-3.75-3.75L827.13,446.69z M830.24,478.09h-6.01v-20.04h6.01V478.09z"/>
		<path d="M898.42,478.09v-13.45c0-1.19-0.2-2.07-0.6-2.64s-1.08-0.85-2.04-0.85c-0.35,0-0.73,0.04-1.14,0.13s-0.83,0.21-1.26,0.38
			s-0.85,0.35-1.27,0.56s-0.8,0.42-1.13,0.66v15.21h-6.01v-20.04h5.36l0.56,2.34h0.06c0.41-0.25,0.91-0.54,1.49-0.86
			s1.22-0.63,1.9-0.91s1.39-0.52,2.12-0.72s1.45-0.29,2.15-0.29c0.8,0,1.55,0.12,2.26,0.37s1.32,0.62,1.85,1.11s0.94,1.11,1.25,1.85
			s0.45,1.6,0.45,2.59v14.56H898.42z"/>
		<path d="M965,460.4c0.41-0.25,0.91-0.54,1.49-0.86s1.22-0.63,1.9-0.91s1.39-0.52,2.12-0.72s1.45-0.29,2.15-0.29
			c0.8,0,1.55,0.12,2.26,0.37s1.32,0.62,1.85,1.11s0.94,1.11,1.25,1.85s0.45,1.6,0.45,2.59v14.56h-6.01v-13.45
			c0-1.19-0.2-2.07-0.6-2.64s-1.08-0.85-2.04-0.85c-0.35,0-0.73,0.04-1.14,0.13s-0.83,0.21-1.26,0.38s-0.85,0.35-1.27,0.56
			s-0.8,0.42-1.13,0.66v15.21h-6.01v-32.87l6.01-1.14v12.48c0,0.35,0,0.75-0.01,1.19s-0.02,0.85-0.04,1.25
			c-0.02,0.47-0.03,0.94-0.03,1.41H965z"/>
		<path d="M1042.21,478.47c-3.44,0-6.06-0.88-7.88-2.65s-2.72-4.35-2.72-7.75c0-1.6,0.22-3.05,0.67-4.35s1.12-2.4,2.01-3.3
			s2-1.59,3.33-2.08s2.86-0.73,4.6-0.73s3.27,0.23,4.58,0.69s2.42,1.13,3.31,2.02s1.56,1.98,2.01,3.27s0.67,2.76,0.67,4.42
			c0,1.62-0.22,3.08-0.67,4.37s-1.12,2.39-2.01,3.3s-1.99,1.6-3.31,2.08S1043.94,478.47,1042.21,478.47z M1037.84,468.04
			c0,2.62,0.33,4.55,1,5.79s1.77,1.86,3.31,1.86c0.61,0,1.17-0.05,1.7-0.15s0.97-0.24,1.32-0.44c0.21-0.12,0.41-0.39,0.59-0.81
			s0.32-0.94,0.44-1.57s0.21-1.34,0.28-2.14s0.1-1.64,0.1-2.52c0-2.56-0.34-4.47-1.03-5.74s-1.78-1.9-3.28-1.9
			c-0.57,0-1.12,0.05-1.67,0.16s-1.04,0.28-1.46,0.51c-0.23,0.12-0.43,0.39-0.59,0.81s-0.29,0.94-0.4,1.57s-0.19,1.33-0.23,2.12
			S1037.84,467.2,1037.84,468.04z"/>
	</g>
	<g>
		<path class="st0" d="M829.45,355.51c-0.67,0.13-1.44,0.29-2.3,0.48c-0.86,0.19-1.71,0.41-2.53,0.65c-0.82,0.24-1.61,0.48-2.35,0.7
			c-0.74,0.23-1.36,0.42-1.85,0.56l12.98,68.94c0.58,0.01,1.27-0.02,2.07-0.09c0.8-0.06,1.63-0.13,2.48-0.21s1.69-0.17,2.51-0.3
			c0.82-0.12,1.48-0.24,1.98-0.33c5.21-0.98,9.52-2.11,12.93-3.39c3.41-1.28,6.2-3.08,8.37-5.4c1.15-1.26,2.18-2.74,3.08-4.45
			c0.9-1.7,1.54-3.88,1.94-6.54c0.4-2.65,0.5-5.88,0.31-9.67c-0.19-3.79-0.79-8.37-1.81-13.75c-1.25-6.66-3.11-11.98-5.57-15.95
			c-2.46-3.97-5.35-6.93-8.67-8.89c-3.32-1.95-6.99-3.04-11.01-3.27C838,354.4,833.81,354.69,829.45,355.51z"/>
		<polygon class="st0" points="540.17,452.52 520.25,417.83 513.63,457.51 		"/>
		<path class="st0" d="M1017.19,329.02c-1.08-1.88-2.42-3.3-4.02-4.24c-1.6-0.94-3.45-1.49-5.57-1.65c-2.12-0.15-4.52,0.02-7.2,0.53
			c-0.62,0.12-1.37,0.29-2.25,0.51c-0.89,0.23-1.68,0.46-2.39,0.71l6.33,33.59l3.02-0.57c2.46-0.46,4.77-1.2,6.93-2.22
			c2.16-1.02,3.79-2.09,4.91-3.23c0.59-0.57,1.16-1.25,1.71-2.02c0.55-0.77,0.98-1.78,1.3-3.03c0.31-1.25,0.46-2.77,0.45-4.56
			c-0.02-1.79-0.28-4-0.77-6.64C1019.08,333.31,1018.27,330.91,1017.19,329.02z"/>
		<polygon class="st0" points="917.38,381.47 943.91,376.48 923.99,341.79 		"/>
		<path d="M422.83,431.7c-2.57,2.8-4.68,6.03-6.31,9.67c-1.63,3.64-2.71,7.71-3.22,12.22c-0.52,4.5-0.26,9.47,0.76,14.9
			c1.26,6.72,3.09,12.69,5.46,17.93c2.38,5.23,5.41,9.55,9.09,12.94c3.68,3.39,8.09,5.72,13.23,6.99c5.13,1.26,11.06,1.26,17.78,0
			c2.58-0.49,5.21-1.13,7.9-1.92c2.69-0.8,5.36-1.72,8-2.77c2.64-1.05,5.2-2.2,7.66-3.44c2.46-1.25,4.72-2.58,6.77-4.01l-1.34-7.14
			c-1.89,1.05-3.92,2.04-6.09,2.97c-2.17,0.93-4.42,1.79-6.73,2.57c-2.32,0.79-4.66,1.49-7.04,2.11c-2.38,0.62-4.68,1.14-6.92,1.56
			c-8.01,1.51-14.36-0.38-19.07-5.67c-4.71-5.29-8.14-13.67-10.3-25.15c-1.41-7.5-2.13-13.87-2.16-19.11
			c-0.03-5.24,1.13-9.01,3.48-11.31c0.92-0.98,1.85-1.81,2.79-2.48c0.95-0.67,1.95-1.25,3.02-1.74c1.07-0.49,2.26-0.92,3.58-1.28
			c1.32-0.36,2.88-0.72,4.67-1.05c1.62-0.31,3.65-0.56,6.08-0.75c2.43-0.2,4.9-0.34,7.44-0.44c2.53-0.1,4.92-0.13,7.16-0.09
			c2.24,0.04,3.98,0.12,5.22,0.24l0.56-7.52c-18.26,4.12-35.46,8.04-51.33,11.67C422.92,431.62,422.87,431.66,422.83,431.7z"/>
		<path d="M496.02,499.26l11.08-2.09l5.12-30.53l32.25-6.51l15.53,27.07l18.81-3.54l-44.77-76.11c-7.06,1.56-14.03,3.11-20.89,4.64
			L496.02,499.26z M540.17,452.52l-26.54,5l6.61-39.68L540.17,452.52z"/>
		<path d="M589.06,481.74l49.38-9.3l-0.87-9.23l-32.67,6.15l-13.99-74.26c-5.86,1.27-11.68,2.53-17.46,3.79L589.06,481.74z"/>
		<path d="M636.01,383.86l0.28,1.51c16.43-3.49,33.04-6.98,49.72-10.44l-0.04-0.48"/>
		<path d="M652.21,469.85l51.81-9.76l-0.76-8.64l-35.23,5.94l-5.79-30.73l28.76-6.11l-0.66-8.14l-29.79,5.26l-5.27-27.96l31.5-6.37
			l-0.76-8.42c-16.69,3.46-33.3,6.95-49.72,10.44L652.21,469.85z"/>
		<path d="M718.97,457.27l10.25-1.93l-5.46-28.97c-0.09-0.5-0.26-1.33-0.51-2.47c-0.25-1.14-0.53-2.48-0.84-4.02
			c-0.32-1.53-0.66-3.21-1.03-5.02c-0.37-1.81-0.75-3.61-1.15-5.39c-0.91-4.23-1.9-8.86-2.96-13.88l0.25-0.05l72.07,48.86l7.81-1.47
			l-16.27-86.41l-10.25,1.93l5.38,28.55c0.16,0.84,0.36,1.93,0.62,3.28c0.25,1.34,0.54,2.81,0.87,4.4c0.33,1.59,0.67,3.26,1.03,5.02
			c0.36,1.76,0.7,3.51,1.03,5.24c0.81,4.02,1.71,8.34,2.7,12.97l-0.08,0.02l-71.37-48.17c-2.75,0.56-5.5,1.13-8.25,1.69
			L718.97,457.27z"/>
		<path d="M823.67,347.69c-2.76,0.61-5.49,1.24-8.21,1.89c-2.72,0.66-5.29,1.31-7.71,1.97c-2.43,0.66-4.54,1.28-6.35,1.85
			l15.94,84.65c1.82-0.17,3.93-0.38,6.32-0.63c2.39-0.25,4.88-0.56,7.48-0.93c2.6-0.37,5.23-0.77,7.91-1.19
			c2.67-0.42,5.21-0.85,7.62-1.3c8.62-1.62,15.76-4.13,21.41-7.51c5.65-3.38,10.02-7.5,13.11-12.34c3.09-4.84,4.98-10.33,5.68-16.46
			c0.7-6.13,0.38-12.75-0.96-19.86c-1.37-7.28-3.66-13.28-6.87-18.01c-3.21-4.73-7.18-8.33-11.9-10.8
			c-4.73-2.47-10.1-3.91-16.12-4.31c-5.66-0.38-11.77,0.01-18.3,1.16c-0.93,0.17-1.86,0.35-2.8,0.52
			C827.92,346.79,825.85,347.21,823.67,347.69z M853.03,357.9c3.33,1.95,6.21,4.92,8.67,8.89c2.46,3.97,4.31,9.29,5.57,15.95
			c1.01,5.37,1.61,9.96,1.81,13.75c0.19,3.79,0.09,7.01-0.31,9.67c-0.4,2.66-1.05,4.83-1.94,6.54c-0.9,1.71-1.92,3.19-3.08,4.45
			c-2.17,2.32-4.96,4.12-8.37,5.4c-3.41,1.28-7.72,2.41-12.93,3.39c-0.5,0.09-1.16,0.21-1.98,0.33c-0.82,0.13-1.65,0.22-2.51,0.3
			s-1.68,0.14-2.48,0.21c-0.8,0.06-1.49,0.09-2.07,0.09l-12.98-68.94c0.49-0.15,1.11-0.34,1.85-0.56c0.74-0.23,1.52-0.46,2.35-0.7
			c0.82-0.24,1.67-0.46,2.53-0.65c0.86-0.19,1.63-0.35,2.3-0.48c4.37-0.82,8.56-1.12,12.57-0.89
			C846.03,354.86,849.7,355.95,853.03,357.9z"/>
		<path d="M829.92,346.39c0.93-0.17,1.87-0.35,2.8-0.52c-0.41,0.07-0.81,0.14-1.22,0.21C830.99,346.18,830.45,346.29,829.92,346.39z
			"/>
		<path d="M917.8,331.57l-18.04,91.65l11.08-2.09l5.12-30.53l32.25-6.51l15.53,27.07l18.81-3.54l-46.9-79.73
			c-4.67,0.75-9.4,1.51-14.18,2.3L917.8,331.57z M917.38,381.47l6.61-39.68l19.92,34.68L917.38,381.47z"/>
		<path d="M1060.94,386.61c-2.74,0.52-5.48,0.15-8.21-1.11c-2.73-1.25-5.52-3.13-8.37-5.64c-2.85-2.51-5.8-5.5-8.87-8.98
			c-3.06-3.48-6.3-7.19-9.71-11.13c1.95-1.35,3.77-2.88,5.48-4.6c1.71-1.71,3.13-3.7,4.26-5.98c1.14-2.27,1.92-4.84,2.33-7.7
			c0.42-2.86,0.29-6.08-0.39-9.67c-1.52-8.06-5.32-13.49-11.41-16.28c-0.05-0.03-0.12-0.04-0.17-0.07
			c-14.99,1.61-31.4,3.69-48.93,6.18l15.83,84.06l17.55-3.3l-6.67-35.44l5.88-1.11l6.5,8.17c2.9,3.69,5.52,6.83,7.86,9.43
			c2.34,2.6,4.49,4.76,6.44,6.48c1.95,1.72,3.78,3.06,5.49,4.01c1.71,0.95,3.4,1.61,5.06,1.96c1.66,0.36,3.39,0.48,5.2,0.37
			c1.81-0.11,3.77-0.36,5.9-0.76c2.24-0.42,4.23-0.94,5.97-1.56c1.74-0.62,3.27-1.28,4.58-1.99l-1.03-5.46L1060.94,386.61z
			 M1019.96,347.42c-0.32,1.25-0.75,2.26-1.3,3.03c-0.55,0.77-1.12,1.44-1.71,2.02c-1.12,1.14-2.76,2.21-4.91,3.23
			c-2.16,1.01-4.47,1.75-6.93,2.22l-3.02,0.57l-6.33-33.59c0.7-0.25,1.5-0.49,2.39-0.71c0.88-0.22,1.63-0.39,2.25-0.51
			c2.69-0.51,5.09-0.68,7.2-0.53c2.12,0.15,3.97,0.7,5.57,1.65c1.6,0.95,2.94,2.36,4.02,4.24c1.08,1.88,1.89,4.28,2.44,7.19
			c0.5,2.63,0.75,4.84,0.77,6.64C1020.42,344.65,1020.27,346.17,1019.96,347.42z"/>
	</g>
</g>
<g id="Second_Try" class="st1">
	<g class="st2">
		<path class="st0" d="M762.73,360.33c-13.57,2.7-27.2,5.44-40.83,8.22l50,38.85L762.73,360.33z"/>
		<polygon class="st0" points="501.2,429.08 495.48,462.61 520.3,457.77 		"/>
		<path class="st0" d="M846.14,410.08c8.47-1.65,14.5-5.24,18.08-10.77c3.58-5.53,4.63-12.11,3.14-19.74
			c-1.54-7.9-5.02-13.68-10.45-17.34s-12.4-4.66-20.91-3l-12.83,2.5l9.91,50.9L846.14,410.08z"/>
		<polygon class="st0" points="927.77,346.01 922.05,379.54 946.88,374.71 		"/>
		<path class="st0" d="M1013.31,324.7l-10.12,1.97l3.56,18.29l10.58-2.06c3.37-0.66,5.89-1.97,7.56-3.95
			c1.67-1.97,2.21-4.44,1.63-7.39C1025.35,325.5,1020.94,323.21,1013.31,324.7z"/>
		<path d="M383.03,443.61c-7.35,9.79-9.9,20.45-7.65,31.99c2.25,11.54,8.37,20.43,18.35,26.66c9.99,6.23,22.11,7.96,36.38,5.18
			c11-2.14,21.01-6.86,30.02-14.14l-3.42-17.54c-6.87,5.2-12.11,8.72-15.73,10.56c-3.62,1.84-7.5,3.16-11.64,3.97
			c-8.36,1.63-15.66,0.64-21.92-2.96c-6.25-3.6-10.07-8.96-11.46-16.09c-1.38-7.09,0.19-13.46,4.73-19.1
			c4.53-5.64,11.08-9.29,19.63-10.96c8.7-1.7,18.46-0.75,29.27,2.84l-3.06-15.71c-23.62,5.38-44.81,10.27-62.83,14.46
			C383.47,443.06,383.24,443.33,383.03,443.61z"/>
		<path d="M468.79,498.84l21.21-4.13l2.91-17.04l35.98-7.01l9.71,14.58l21.52-4.19l-47.34-67.69c-9.79,2.19-19.36,4.33-28.66,6.43
			L468.79,498.84z M501.2,429.08l19.1,28.69l-24.82,4.83L501.2,429.08z"/>
		<path d="M569.38,479.26l61.25-11.93l-2.87-14.72l-41.24,8.03l-11.86-60.93c-6.71,1.46-13.35,2.92-19.92,4.37L569.38,479.26z"/>
		<path d="M642.07,465.1l59.24-11.54l-2.87-14.72l-39.22,7.64l-3.76-19.32l36.64-7.13l-2.87-14.72l-36.64,7.13l-3.28-16.85
			l38.42-7.48l-2.34-12.02c-19.6,4.08-39.08,8.19-58.26,12.29L642.07,465.1z"/>
		<path d="M771.9,407.41l-50-38.85c-6.78,1.38-13.56,2.77-20.33,4.17l15.16,77.84l20.01-3.9l-10.02-51.47l54.37,42.84l16.9-3.29
			l-15.26-78.35c-6.65,1.3-13.32,2.62-20.01,3.95L771.9,407.41z"/>
		<path d="M815.94,431.25l33.19-6.46c14.95-2.91,25.77-8.71,32.46-17.39c6.69-8.68,8.82-19.26,6.39-31.72
			c-2.31-11.89-8.18-20.8-17.59-26.75c-5.16-3.26-10.96-5.21-17.39-5.89c-17.13,3.14-34.61,6.44-52.3,9.86L815.94,431.25z
			 M836,359.23c8.51-1.66,15.48-0.66,20.91,3s8.91,9.44,10.45,17.34c1.49,7.63,0.44,14.21-3.14,19.74
			c-3.58,5.53-9.61,9.12-18.08,10.77l-13.06,2.54l-9.91-50.9L836,359.23z"/>
		<path d="M895.36,415.78l21.21-4.13l2.91-17.04l35.98-7.01l9.71,14.58L986.7,398l-48.73-69.67c-8.65,1.39-17.49,2.85-26.49,4.37
			L895.36,415.78z M927.77,346.01l19.1,28.69l-24.83,4.83L927.77,346.01z"/>
		<path d="M1037.01,349.19c8.37-6.04,11.7-13.49,9.97-22.34c-0.97-4.96-3.3-9.06-6.98-12.31c-17.51,1.71-37.19,4.14-58.55,7.18
			l14.5,74.48l20.01-3.9l-6.35-32.61l5.75-1.12c2.65-0.52,5.33,0.06,8.06,1.71c2.73,1.66,6.45,5.89,11.16,12.69
			c4.71,6.8,7.97,11.4,9.8,13.79l21.96-4.28c-4.77-6.47-9.76-13.37-14.96-20.71C1046.19,354.43,1041.4,350.24,1037.01,349.19z
			 M1024.89,338.95c-1.67,1.98-4.18,3.29-7.56,3.95l-10.58,2.06l-3.56-18.29l10.12-1.97c7.63-1.49,12.04,0.8,13.21,6.86
			C1027.1,334.51,1026.56,336.98,1024.89,338.95z"/>
	</g>
	<g class="st2">
		<path d="M827.13,446.69l3.78,3.75l-3.78,3.75l-3.75-3.75L827.13,446.69z M830.24,478.09h-6.01v-20.04h6.01V478.09z"/>
		<path d="M898.42,478.09v-13.45c0-1.19-0.2-2.07-0.6-2.64s-1.08-0.85-2.04-0.85c-0.35,0-0.73,0.04-1.14,0.13s-0.83,0.21-1.26,0.38
			s-0.85,0.35-1.27,0.56s-0.8,0.42-1.13,0.66v15.21h-6.01v-20.04h5.36l0.56,2.34h0.06c0.41-0.25,0.91-0.54,1.49-0.86
			s1.22-0.63,1.9-0.91s1.39-0.52,2.12-0.72s1.45-0.29,2.15-0.29c0.8,0,1.55,0.12,2.26,0.37s1.32,0.62,1.85,1.11s0.94,1.11,1.25,1.85
			s0.45,1.6,0.45,2.59v14.56H898.42z"/>
		<path d="M965,460.4c0.41-0.25,0.91-0.54,1.49-0.86s1.22-0.63,1.9-0.91s1.39-0.52,2.12-0.72s1.45-0.29,2.15-0.29
			c0.8,0,1.55,0.12,2.26,0.37s1.32,0.62,1.85,1.11s0.94,1.11,1.25,1.85s0.45,1.6,0.45,2.59v14.56h-6.01v-13.45
			c0-1.19-0.2-2.07-0.6-2.64s-1.08-0.85-2.04-0.85c-0.35,0-0.73,0.04-1.14,0.13s-0.83,0.21-1.26,0.38s-0.85,0.35-1.27,0.56
			s-0.8,0.42-1.13,0.66v15.21h-6.01v-32.87l6.01-1.14v12.48c0,0.35,0,0.75-0.01,1.19s-0.02,0.85-0.04,1.25
			c-0.02,0.47-0.03,0.94-0.03,1.41H965z"/>
		<path d="M1042.21,478.47c-3.44,0-6.06-0.88-7.88-2.65s-2.72-4.35-2.72-7.75c0-1.6,0.22-3.05,0.67-4.35s1.12-2.4,2.01-3.3
			s2-1.59,3.33-2.08s2.86-0.73,4.6-0.73s3.27,0.23,4.58,0.69s2.42,1.13,3.31,2.02s1.56,1.98,2.01,3.27s0.67,2.76,0.67,4.42
			c0,1.62-0.22,3.08-0.67,4.37s-1.12,2.39-2.01,3.3s-1.99,1.6-3.31,2.08S1043.94,478.47,1042.21,478.47z M1037.84,468.04
			c0,2.62,0.33,4.55,1,5.79s1.77,1.86,3.31,1.86c0.61,0,1.17-0.05,1.7-0.15s0.97-0.24,1.32-0.44c0.21-0.12,0.41-0.39,0.59-0.81
			s0.32-0.94,0.44-1.57s0.21-1.34,0.28-2.14s0.1-1.64,0.1-2.52c0-2.56-0.34-4.47-1.03-5.74s-1.78-1.9-3.28-1.9
			c-0.57,0-1.12,0.05-1.67,0.16s-1.04,0.28-1.46,0.51c-0.23,0.12-0.43,0.39-0.59,0.81s-0.29,0.94-0.4,1.57s-0.19,1.33-0.23,2.12
			S1037.84,467.2,1037.84,468.04z"/>
	</g>
</g>
<g id="Layer_5" class="st1">
	<g class="st2">
		<path d="M606.92,503.36c-6.21,3.28-13.95,4.92-23.2,4.92c-11.95,0-21.52-3.85-28.71-11.54c-7.19-7.7-10.78-17.79-10.78-30.29
			c0-13.44,4.04-24.3,12.13-32.58s18.34-12.42,30.76-12.42c7.97,0,14.57,1.15,19.8,3.46v10.49c-6.02-3.36-12.66-5.04-19.92-5.04
			c-9.65,0-17.47,3.22-23.47,9.67c-6,6.45-8.99,15.06-8.99,25.84c0,10.23,2.8,18.39,8.41,24.46c5.6,6.07,12.96,9.11,22.06,9.11
			c8.44,0,15.74-1.88,21.91-5.63V503.36z"/>
		<path d="M689.07,506.87h-10.9l-8.91-23.55h-35.63l-8.38,23.55H614.3l32.23-84.02h10.2L689.07,506.87z M666.04,474.47l-13.18-35.8
			c-0.43-1.17-0.86-3.05-1.29-5.63h-0.23c-0.39,2.38-0.84,4.26-1.35,5.63l-13.07,35.8H666.04z"/>
		<path d="M745.02,506.87h-43.59v-84.02h9.84v75.12h33.75V506.87z"/>
		<path d="M802.45,506.87h-44.53v-84.02h42.66v8.91h-32.81v27.95h30.35v8.85h-30.35v29.41h34.69V506.87z"/>
		<path d="M886.35,506.87h-12.07l-43.24-66.97c-1.09-1.68-1.99-3.44-2.7-5.27h-0.35c0.31,1.8,0.47,5.64,0.47,11.54v60.7h-9.84
			v-84.02h12.77l42.07,65.92c1.76,2.73,2.89,4.61,3.4,5.63h0.23c-0.39-2.42-0.59-6.54-0.59-12.36v-59.18h9.84V506.87z"/>
		<path d="M908.38,506.87v-84.02h23.2c29.61,0,44.41,13.65,44.41,40.96c0,12.97-4.11,23.39-12.33,31.26
			c-8.22,7.87-19.23,11.81-33.02,11.81H908.38z M918.23,431.75v66.21h12.54c11.02,0,19.59-2.95,25.72-8.85
			c6.13-5.9,9.2-14.26,9.2-25.08c0-21.52-11.45-32.29-34.34-32.29H918.23z"/>
		<path d="M1057.56,506.87h-10.9l-8.91-23.55h-35.63l-8.38,23.55H982.8l32.23-84.02h10.2L1057.56,506.87z M1034.54,474.47
			l-13.18-35.8c-0.43-1.17-0.86-3.05-1.29-5.63h-0.23c-0.39,2.38-0.84,4.26-1.35,5.63l-13.07,35.8H1034.54z"/>
		<path d="M1130.16,506.87h-11.72l-14.06-23.55c-1.29-2.19-2.54-4.05-3.75-5.6c-1.21-1.54-2.45-2.8-3.72-3.78
			c-1.27-0.98-2.64-1.69-4.1-2.14s-3.12-0.67-4.95-0.67h-8.09v35.74h-9.84v-84.02H1095c3.67,0,7.06,0.46,10.17,1.38
			s5.8,2.31,8.09,4.19s4.07,4.21,5.36,7s1.93,6.06,1.93,9.81c0,2.93-0.44,5.62-1.32,8.06s-2.13,4.62-3.75,6.53
			c-1.62,1.91-3.57,3.54-5.86,4.89s-4.85,2.39-7.71,3.13v0.23c1.41,0.63,2.63,1.34,3.66,2.14c1.03,0.8,2.02,1.75,2.96,2.84
			s1.87,2.33,2.78,3.72c0.92,1.39,1.94,3,3.08,4.83L1130.16,506.87z M1079.77,431.75v30.47h13.36c2.46,0,4.74-0.37,6.83-1.11
			c2.09-0.74,3.9-1.81,5.42-3.19s2.71-3.09,3.57-5.1c0.86-2.01,1.29-4.27,1.29-6.77c0-4.49-1.46-8-4.37-10.52
			c-2.91-2.52-7.12-3.78-12.63-3.78H1079.77z"/>
	</g>
</g>
<g id="Layer_2">
	<polygon class="st3" points="758.74,361.13 768,318 736.11,303 711.05,369.76 	"/>
	<polyline class="st4" points="402.48,437.42 484,303 737,303 709.91,370.71 	"/>
	<linearGradient id="SVGID_1_" gradientUnits="userSpaceOnUse" x1="605.4297" y1="330.4597" x2="605.9251" y2="268.6983">
		<stop  offset="0.155" style="stop-color:#FFFFFF"/>
		<stop  offset="0.2703" style="stop-color:#727272"/>
		<stop  offset="0.4434" style="stop-color:#000000"/>
	</linearGradient>
	<polygon class="st5" points="474.17,319.21 729.49,321.77 737,303 484,303 	"/>
	<g>
		<path d="M319,458c61.75-17.92,124.01-33.82,186.44-49.01c62.45-15.09,125.15-29.2,188.07-42.26c15.74-3.2,31.48-6.44,47.25-9.55
			c15.77-3.1,31.55-6.12,47.34-9.1c31.61-5.85,63.27-11.42,95.03-16.47c31.76-5.06,63.63-9.47,95.59-13.2l11.99-1.33l12.02-1.16
			l12.01-1.16c4.01-0.34,8.03-0.61,12.04-0.9c16.04-1.27,32.15-1.87,48.22-1.87l-11.98,1.29l-5.98,0.63l-5.97,0.8l-11.93,1.53
			c-3.97,0.52-7.94,1.18-11.9,1.76l-11.89,1.77l-11.87,1.92l-11.87,1.93l-11.84,2.09l-11.85,2.02l-11.83,2.13
			c-7.89,1.44-15.78,2.82-23.65,4.36l-23.63,4.46l-23.62,4.55c-31.47,6.17-62.92,12.44-94.36,18.82l-94.27,19.37l-188.55,39.04
			C445.1,433.31,382.19,446.16,319,458z"/>
	</g>
	<path class="st6" d="M689,332c0,0-41.01-7.99,0-49c34-34,43,19,43,19"/>
	<path class="st6" d="M626.57,332.36c0,0-41.01-7.99,0-49c34-34,43,19,43,19"/>
	<path class="st6" d="M564.57,329.36c0,0-41.01-7.99,0-49c34-34,43,19,43,19"/>
	<path class="st6" d="M499.57,332.36c0,0-41.01-7.99,0-49c34-34,43,19,43,19"/>
	<g>
	</g>
	<g>
	</g>
	<g>
	</g>
	<g>
	</g>
	<g>
	</g>
	<g>
	</g>
	<g>
	</g>
	<g>
	</g>
	<g>
	</g>
	<g>
	</g>
	<g>
	</g>
	<g>
	</g>
	<g>
	</g>
	<g>
	</g>
	<g>
	</g>
</g>
</svg>
