<?xml version="1.0" encoding="utf-8"?>
<svg viewBox="-163.601 97.465 760 243" xmlns="http://www.w3.org/2000/svg">
  <g transform="matrix(1, 0, 0, 1, -162.600616, 98.465294)">
    <title>background</title>
    <rect fill="none" id="canvas_background" height="243" width="760" y="-1" x="-1"/>
  </g>
  <g id="First_Try" transform="matrix(1, 0, 0, 1, -162.600616, 98.465294)">
    <g id="svg_1">
      <path id="svg_2" d="m509.13,179.69l3.78,3.75l-3.78,3.75l-3.75,-3.75l3.75,-3.75zm3.11,31.4l-6.01,0l0,-20.04l6.01,0l0,20.04z" style="fill: rgb(226, 226, 226);"/>
      <path id="svg_3" d="m580.42,211.09l0,-13.45c0,-1.19 -0.2,-2.07 -0.6,-2.64s-1.08,-0.85 -2.04,-0.85c-0.35,0 -0.73,0.04 -1.14,0.13s-0.83,0.21 -1.26,0.38s-0.85,0.35 -1.27,0.56s-0.8,0.42 -1.13,0.66l0,15.21l-6.01,0l0,-20.04l5.36,0l0.56,2.34l0.06,0c0.41,-0.25 0.91,-0.54 1.49,-0.86s1.22,-0.63 1.9,-0.91s1.39,-0.52 2.12,-0.72s1.45,-0.29 2.15,-0.29c0.8,0 1.55,0.12 2.26,0.37s1.32,0.62 1.85,1.11s0.94,1.11 1.25,1.85s0.45,1.6 0.45,2.59l0,14.56l-6,0z" style="fill: rgb(226, 226, 226);"/>
      <path id="svg_4" d="m647,193.4c0.41,-0.25 0.91,-0.54 1.49,-0.86s1.22,-0.63 1.9,-0.91s1.39,-0.52 2.12,-0.72s1.45,-0.29 2.15,-0.29c0.8,0 1.55,0.12 2.26,0.37s1.32,0.62 1.85,1.11s0.94,1.11 1.25,1.85s0.45,1.6 0.45,2.59l0,14.56l-6.01,0l0,-13.45c0,-1.19 -0.2,-2.07 -0.6,-2.64s-1.08,-0.85 -2.04,-0.85c-0.35,0 -0.73,0.04 -1.14,0.13s-0.83,0.21 -1.26,0.38s-0.85,0.35 -1.27,0.56s-0.8,0.42 -1.13,0.66l0,15.21l-6.01,0l0,-32.87l6.01,-1.14l0,12.48c0,0.35 0,0.75 -0.01,1.19s-0.02,0.85 -0.04,1.25c-0.02,0.47 -0.03,0.94 -0.03,1.41l0.06,0l0,-0.02z" style="fill: rgb(226, 226, 226);"/>
      <path id="svg_5" d="m724.21,211.47c-3.44,0 -6.06,-0.88 -7.88,-2.65s-2.72,-4.35 -2.72,-7.75c0,-1.6 0.22,-3.05 0.67,-4.35s1.12,-2.4 2.01,-3.3s2,-1.59 3.33,-2.08s2.86,-0.73 4.6,-0.73s3.27,0.23 4.58,0.69s2.42,1.13 3.31,2.02s1.56,1.98 2.01,3.27s0.67,2.76 0.67,4.42c0,1.62 -0.22,3.08 -0.67,4.37s-1.12,2.39 -2.01,3.3s-1.99,1.6 -3.31,2.08s-2.86,0.71 -4.59,0.71zm-4.37,-10.43c0,2.62 0.33,4.55 1,5.79s1.77,1.86 3.31,1.86c0.61,0 1.17,-0.05 1.7,-0.15s0.97,-0.24 1.32,-0.44c0.21,-0.12 0.41,-0.39 0.59,-0.81s0.32,-0.94 0.44,-1.57s0.21,-1.34 0.28,-2.14s0.1,-1.64 0.1,-2.52c0,-2.56 -0.34,-4.47 -1.03,-5.74s-1.78,-1.9 -3.28,-1.9c-0.57,0 -1.12,0.05 -1.67,0.16s-1.04,0.28 -1.46,0.51c-0.23,0.12 -0.43,0.39 -0.59,0.81s-0.29,0.94 -0.4,1.57s-0.19,1.33 -0.23,2.12s-0.08,1.61 -0.08,2.45z" style="fill: rgb(226, 226, 226);"/>
    </g>
    <g id="svg_6">
      <path id="svg_11" d="m104.83,164.7c-2.57,2.8 -4.68,6.03 -6.31,9.67c-1.63,3.64 -2.71,7.71 -3.22,12.22c-0.52,4.5 -0.26,9.47 0.76,14.9c1.26,6.72 3.09,12.69 5.46,17.93c2.38,5.23 5.41,9.55 9.09,12.94c3.68,3.39 8.09,5.72 13.23,6.99c5.13,1.26 11.06,1.26 17.78,0c2.58,-0.49 5.21,-1.13 7.9,-1.92c2.69,-0.8 5.36,-1.72 8,-2.77c2.64,-1.05 5.2,-2.2 7.66,-3.44c2.46,-1.25 4.72,-2.58 6.77,-4.01l-1.34,-7.14c-1.89,1.05 -3.92,2.04 -6.09,2.97c-2.17,0.93 -4.42,1.79 -6.73,2.57c-2.32,0.79 -4.66,1.49 -7.04,2.11c-2.38,0.62 -4.68,1.14 -6.92,1.56c-8.01,1.51 -14.36,-0.38 -19.07,-5.67c-4.71,-5.29 -8.14,-13.67 -10.3,-25.15c-1.41,-7.5 -2.13,-13.87 -2.16,-19.11c-0.03,-5.24 1.13,-9.01 3.48,-11.31c0.92,-0.98 1.85,-1.81 2.79,-2.48c0.95,-0.67 1.95,-1.25 3.02,-1.74c1.07,-0.49 2.26,-0.92 3.58,-1.28c1.32,-0.36 2.88,-0.72 4.67,-1.05c1.62,-0.31 3.65,-0.56 6.08,-0.75c2.43,-0.2 4.9,-0.34 7.44,-0.44c2.53,-0.1 4.92,-0.13 7.16,-0.09c2.24,0.04 3.98,0.12 5.22,0.24l0.56,-7.52c-18.26,4.12 -35.46,8.04 -51.33,11.67c-0.05,0.02 -0.1,0.06 -0.14,0.1z" style="fill: rgb(226, 226, 226);"/>
      <path id="svg_12" d="m178.02,232.26l11.08,-2.09l5.12,-30.53l32.25,-6.51l15.53,27.07l18.81,-3.54l-44.77,-76.11c-7.06,1.56 -14.03,3.11 -20.89,4.64l-17.13,87.07zm44.15,-46.74l-26.54,5l6.61,-39.68l19.93,34.68z" style="fill: rgb(226, 226, 226);"/>
      <path id="svg_13" d="m271.06,214.74l49.38,-9.3l-0.87,-9.23l-32.67,6.15l-13.99,-74.26c-5.86,1.27 -11.68,2.53 -17.46,3.79l15.61,82.85z" style="fill: rgb(226, 226, 226);"/>
      <path id="svg_14" d="m318.01,116.86l0.28,1.51c16.43,-3.49 33.04,-6.98 49.72,-10.44l-0.04,-0.48" style="fill: rgb(226, 226, 226);"/>
      <path id="svg_15" d="m334.21,202.85l51.81,-9.76l-0.76,-8.64l-35.23,5.94l-5.79,-30.73l28.76,-6.11l-0.66,-8.14l-29.79,5.26l-5.27,-27.96l31.5,-6.37l-0.76,-8.42c-16.69,3.46 -33.3,6.95 -49.72,10.44l15.91,84.49z" style="fill: rgb(226, 226, 226);"/>
      <path id="svg_16" d="m400.97,190.27l10.25,-1.93l-5.46,-28.97c-0.09,-0.5 -0.26,-1.33 -0.51,-2.47c-0.25,-1.14 -0.53,-2.48 -0.84,-4.02c-0.32,-1.53 -0.66,-3.21 -1.03,-5.02c-0.37,-1.81 -0.75,-3.61 -1.15,-5.39c-0.91,-4.23 -1.9,-8.86 -2.96,-13.88l0.25,-0.05l72.07,48.86l7.81,-1.47l-16.27,-86.41l-10.25,1.93l5.38,28.55c0.16,0.84 0.36,1.93 0.62,3.28c0.25,1.34 0.54,2.81 0.87,4.4c0.33,1.59 0.67,3.26 1.03,5.02c0.36,1.76 0.7,3.51 1.03,5.24c0.81,4.02 1.71,8.34 2.7,12.97l-0.08,0.02l-71.37,-48.17c-2.75,0.56 -5.5,1.13 -8.25,1.69l16.16,85.82z" style="fill: rgb(226, 226, 226);"/>
      <path id="svg_17" d="m505.67,80.69c-2.76,0.61 -5.49,1.24 -8.21,1.89c-2.72,0.66 -5.29,1.31 -7.71,1.97c-2.43,0.66 -4.54,1.28 -6.35,1.85l15.94,84.65c1.82,-0.17 3.93,-0.38 6.32,-0.63c2.39,-0.25 4.88,-0.56 7.48,-0.93c2.6,-0.37 5.23,-0.77 7.91,-1.19c2.67,-0.42 5.21,-0.85 7.62,-1.3c8.62,-1.62 15.76,-4.13 21.41,-7.51c5.65,-3.38 10.02,-7.5 13.11,-12.34c3.09,-4.84 4.98,-10.33 5.68,-16.46c0.7,-6.13 0.38,-12.75 -0.96,-19.86c-1.37,-7.28 -3.66,-13.28 -6.87,-18.01c-3.21,-4.73 -7.18,-8.33 -11.9,-10.8c-4.73,-2.47 -10.1,-3.91 -16.12,-4.31c-5.66,-0.38 -11.77,0.01 -18.3,1.16c-0.93,0.17 -1.86,0.35 -2.8,0.52c-2,0.4 -4.07,0.82 -6.25,1.3zm29.36,10.21c3.33,1.95 6.21,4.92 8.67,8.89c2.46,3.97 4.31,9.29 5.57,15.95c1.01,5.37 1.61,9.96 1.81,13.75c0.19,3.79 0.09,7.01 -0.31,9.67c-0.4,2.66 -1.05,4.83 -1.94,6.54c-0.9,1.71 -1.92,3.19 -3.08,4.45c-2.17,2.32 -4.96,4.12 -8.37,5.4c-3.41,1.28 -7.72,2.41 -12.93,3.39c-0.5,0.09 -1.16,0.21 -1.98,0.33c-0.82,0.13 -1.65,0.22 -2.51,0.3s-1.68,0.14 -2.48,0.21c-0.8,0.06 -1.49,0.09 -2.07,0.09l-12.98,-68.94c0.49,-0.15 1.11,-0.34 1.85,-0.56c0.74,-0.23 1.52,-0.46 2.35,-0.7c0.82,-0.24 1.67,-0.46 2.53,-0.65c0.86,-0.19 1.63,-0.35 2.3,-0.48c4.37,-0.82 8.56,-1.12 12.57,-0.89c4,0.21 7.67,1.3 11,3.25z" style="fill: rgb(226, 226, 226);"/>
      <path id="svg_18" d="m511.92,79.39c0.93,-0.17 1.87,-0.35 2.8,-0.52c-0.41,0.07 -0.81,0.14 -1.22,0.21c-0.51,0.1 -1.05,0.21 -1.58,0.31z" style="fill: rgb(226, 226, 226);"/>
      <path id="svg_19" d="m599.8,64.57l-18.04,91.65l11.08,-2.09l5.12,-30.53l32.25,-6.51l15.53,27.07l18.81,-3.54l-46.9,-79.73c-4.67,0.75 -9.4,1.51 -14.18,2.3l-3.67,1.38zm-0.42,49.9l6.61,-39.68l19.92,34.68l-26.53,5z" style="fill: rgb(226, 226, 226);"/>
      <path id="svg_20" d="m742.94,119.61c-2.74,0.52 -5.48,0.15 -8.21,-1.11c-2.73,-1.25 -5.52,-3.13 -8.37,-5.64c-2.85,-2.51 -5.8,-5.5 -8.87,-8.98c-3.06,-3.48 -6.3,-7.19 -9.71,-11.13c1.95,-1.35 3.77,-2.88 5.48,-4.6c1.71,-1.71 3.13,-3.7 4.26,-5.98c1.14,-2.27 1.92,-4.84 2.33,-7.7c0.42,-2.86 0.29,-6.08 -0.39,-9.67c-1.52,-8.06 -5.32,-13.49 -11.41,-16.28c-0.05,-0.03 -0.12,-0.04 -0.17,-0.07c-14.99,1.61 -31.4,3.69 -48.93,6.18l15.83,84.06l17.55,-3.3l-6.67,-35.44l5.88,-1.11l6.5,8.17c2.9,3.69 5.52,6.83 7.86,9.43c2.34,2.6 4.49,4.76 6.44,6.48c1.95,1.72 3.78,3.06 5.49,4.01c1.71,0.95 3.4,1.61 5.06,1.96c1.66,0.36 3.39,0.48 5.2,0.37c1.81,-0.11 3.77,-0.36 5.9,-0.76c2.24,-0.42 4.23,-0.94 5.97,-1.56c1.74,-0.62 3.27,-1.28 4.58,-1.99l-1.03,-5.46l-0.57,0.12zm-40.98,-39.19c-0.32,1.25 -0.75,2.26 -1.3,3.03c-0.55,0.77 -1.12,1.44 -1.71,2.02c-1.12,1.14 -2.76,2.21 -4.91,3.23c-2.16,1.01 -4.47,1.75 -6.93,2.22l-3.02,0.57l-6.33,-33.59c0.7,-0.25 1.5,-0.49 2.39,-0.71c0.88,-0.22 1.63,-0.39 2.25,-0.51c2.69,-0.51 5.09,-0.68 7.2,-0.53c2.12,0.15 3.97,0.7 5.57,1.65c1.6,0.95 2.94,2.36 4.02,4.24c1.08,1.88 1.89,4.28 2.44,7.19c0.5,2.63 0.75,4.84 0.77,6.64c0.02,1.78 -0.13,3.3 -0.44,4.55z" style="fill: rgb(226, 226, 226);"/>
    </g>
  </g>
  <g class="st1" id="Second_Try" style="display: none;" transform="matrix(1, 0, 0, 1, -162.600616, 98.465294)">
    <g id="svg_21" class="st2">
      <path id="svg_22" d="m444.73,93.33c-13.57,2.7 -27.2,5.44 -40.83,8.22l50,38.85l-9.17,-47.07z" class="st0" style="fill: none;"/>
      <polygon id="svg_23" points="183.20001220703125,162.07998657226562 177.48001098632812,195.6099853515625 202.29998779296875,190.76998901367188 " class="st0" style="fill: none;"/>
      <path id="svg_24" d="m528.14,143.08c8.47,-1.65 14.5,-5.24 18.08,-10.77c3.58,-5.53 4.63,-12.11 3.14,-19.74c-1.54,-7.9 -5.02,-13.68 -10.45,-17.34s-12.4,-4.66 -20.91,-3l-12.83,2.5l9.91,50.9l13.06,-2.55z" class="st0" style="fill: none;"/>
      <polygon id="svg_25" points="609.77001953125,79.010009765625 604.0499877929688,112.54000854492188 628.8800048828125,107.70999145507812 " class="st0" style="fill: none;"/>
      <path id="svg_26" d="m695.31,57.7l-10.12,1.97l3.56,18.29l10.58,-2.06c3.37,-0.66 5.89,-1.97 7.56,-3.95c1.67,-1.97 2.21,-4.44 1.63,-7.39c-1.17,-6.06 -5.58,-8.35 -13.21,-6.86z" class="st0" style="fill: none;"/>
      <path id="svg_27" d="m65.03,176.61c-7.35,9.79 -9.9,20.45 -7.65,31.99c2.25,11.54 8.37,20.43 18.35,26.66c9.99,6.23 22.11,7.96 36.38,5.18c11,-2.14 21.01,-6.86 30.02,-14.14l-3.42,-17.54c-6.87,5.2 -12.11,8.72 -15.73,10.56c-3.62,1.84 -7.5,3.16 -11.64,3.97c-8.36,1.63 -15.66,0.64 -21.92,-2.96c-6.25,-3.6 -10.07,-8.96 -11.46,-16.09c-1.38,-7.09 0.19,-13.46 4.73,-19.1c4.53,-5.64 11.08,-9.29 19.63,-10.96c8.7,-1.7 18.46,-0.75 29.27,2.84l-3.06,-15.71c-23.62,5.38 -44.81,10.27 -62.83,14.46c-0.23,0.29 -0.46,0.56 -0.67,0.84z"/>
      <path id="svg_28" d="m150.79,231.84l21.21,-4.13l2.91,-17.04l35.98,-7.01l9.71,14.58l21.52,-4.19l-47.34,-67.69c-9.79,2.19 -19.36,4.33 -28.66,6.43l-15.33,79.05zm32.41,-69.76l19.1,28.69l-24.82,4.83l5.72,-33.52z"/>
      <path id="svg_29" d="m251.38,212.26l61.25,-11.93l-2.87,-14.72l-41.24,8.03l-11.86,-60.93c-6.71,1.46 -13.35,2.92 -19.92,4.37l14.64,75.18z"/>
      <path id="svg_30" d="m324.07,198.1l59.24,-11.54l-2.87,-14.72l-39.22,7.64l-3.76,-19.32l36.64,-7.13l-2.87,-14.72l-36.64,7.13l-3.28,-16.85l38.42,-7.48l-2.34,-12.02c-19.6,4.08 -39.08,8.19 -58.26,12.29l14.94,76.72z"/>
      <path id="svg_31" d="m453.9,140.41l-50,-38.85c-6.78,1.38 -13.56,2.77 -20.33,4.17l15.16,77.84l20.01,-3.9l-10.02,-51.47l54.37,42.84l16.9,-3.29l-15.26,-78.35c-6.65,1.3 -13.32,2.62 -20.01,3.95l9.18,47.06z"/>
      <path id="svg_32" d="m497.94,164.25l33.19,-6.46c14.95,-2.91 25.77,-8.71 32.46,-17.39c6.69,-8.68 8.82,-19.26 6.39,-31.72c-2.31,-11.89 -8.18,-20.8 -17.59,-26.75c-5.16,-3.26 -10.96,-5.21 -17.39,-5.89c-17.13,3.14 -34.61,6.44 -52.3,9.86l15.24,78.35zm20.06,-72.02c8.51,-1.66 15.48,-0.66 20.91,3s8.91,9.44 10.45,17.34c1.49,7.63 0.44,14.21 -3.14,19.74c-3.58,5.53 -9.61,9.12 -18.08,10.77l-13.06,2.54l-9.91,-50.9l12.83,-2.49z"/>
      <path id="svg_33" d="m577.36,148.78l21.21,-4.13l2.91,-17.04l35.98,-7.01l9.71,14.58l21.53,-4.18l-48.73,-69.67c-8.65,1.39 -17.49,2.85 -26.49,4.37l-16.12,83.08zm32.41,-69.77l19.1,28.69l-24.83,4.83l5.73,-33.52z"/>
      <path id="svg_34" d="m719.01,82.19c8.37,-6.04 11.7,-13.49 9.97,-22.34c-0.97,-4.96 -3.3,-9.06 -6.98,-12.31c-17.51,1.71 -37.19,4.14 -58.55,7.18l14.5,74.48l20.01,-3.9l-6.35,-32.61l5.75,-1.12c2.65,-0.52 5.33,0.06 8.06,1.71c2.73,1.66 6.45,5.89 11.16,12.69c4.71,6.8 7.97,11.4 9.8,13.79l21.96,-4.28c-4.77,-6.47 -9.76,-13.37 -14.96,-20.71c-5.19,-7.34 -9.98,-11.53 -14.37,-12.58zm-12.12,-10.24c-1.67,1.98 -4.18,3.29 -7.56,3.95l-10.58,2.06l-3.56,-18.29l10.12,-1.97c7.63,-1.49 12.04,0.8 13.21,6.86c0.58,2.95 0.04,5.42 -1.63,7.39z"/>
    </g>
    <g id="svg_35" class="st2">
      <path id="svg_36" d="m509.13,179.69l3.78,3.75l-3.78,3.75l-3.75,-3.75l3.75,-3.75zm3.11,31.4l-6.01,0l0,-20.04l6.01,0l0,20.04z"/>
      <path id="svg_37" d="m580.42,211.09l0,-13.45c0,-1.19 -0.2,-2.07 -0.6,-2.64s-1.08,-0.85 -2.04,-0.85c-0.35,0 -0.73,0.04 -1.14,0.13s-0.83,0.21 -1.26,0.38s-0.85,0.35 -1.27,0.56s-0.8,0.42 -1.13,0.66l0,15.21l-6.01,0l0,-20.04l5.36,0l0.56,2.34l0.06,0c0.41,-0.25 0.91,-0.54 1.49,-0.86s1.22,-0.63 1.9,-0.91s1.39,-0.52 2.12,-0.72s1.45,-0.29 2.15,-0.29c0.8,0 1.55,0.12 2.26,0.37s1.32,0.62 1.85,1.11s0.94,1.11 1.25,1.85s0.45,1.6 0.45,2.59l0,14.56l-6,0z"/>
      <path id="svg_38" d="m647,193.4c0.41,-0.25 0.91,-0.54 1.49,-0.86s1.22,-0.63 1.9,-0.91s1.39,-0.52 2.12,-0.72s1.45,-0.29 2.15,-0.29c0.8,0 1.55,0.12 2.26,0.37s1.32,0.62 1.85,1.11s0.94,1.11 1.25,1.85s0.45,1.6 0.45,2.59l0,14.56l-6.01,0l0,-13.45c0,-1.19 -0.2,-2.07 -0.6,-2.64s-1.08,-0.85 -2.04,-0.85c-0.35,0 -0.73,0.04 -1.14,0.13s-0.83,0.21 -1.26,0.38s-0.85,0.35 -1.27,0.56s-0.8,0.42 -1.13,0.66l0,15.21l-6.01,0l0,-32.87l6.01,-1.14l0,12.48c0,0.35 0,0.75 -0.01,1.19s-0.02,0.85 -0.04,1.25c-0.02,0.47 -0.03,0.94 -0.03,1.41l0.06,0l0,-0.02z"/>
      <path id="svg_39" d="m724.21,211.47c-3.44,0 -6.06,-0.88 -7.88,-2.65s-2.72,-4.35 -2.72,-7.75c0,-1.6 0.22,-3.05 0.67,-4.35s1.12,-2.4 2.01,-3.3s2,-1.59 3.33,-2.08s2.86,-0.73 4.6,-0.73s3.27,0.23 4.58,0.69s2.42,1.13 3.31,2.02s1.56,1.98 2.01,3.27s0.67,2.76 0.67,4.42c0,1.62 -0.22,3.08 -0.67,4.37s-1.12,2.39 -2.01,3.3s-1.99,1.6 -3.31,2.08s-2.86,0.71 -4.59,0.71zm-4.37,-10.43c0,2.62 0.33,4.55 1,5.79s1.77,1.86 3.31,1.86c0.61,0 1.17,-0.05 1.7,-0.15s0.97,-0.24 1.32,-0.44c0.21,-0.12 0.41,-0.39 0.59,-0.81s0.32,-0.94 0.44,-1.57s0.21,-1.34 0.28,-2.14s0.1,-1.64 0.1,-2.52c0,-2.56 -0.34,-4.47 -1.03,-5.74s-1.78,-1.9 -3.28,-1.9c-0.57,0 -1.12,0.05 -1.67,0.16s-1.04,0.28 -1.46,0.51c-0.23,0.12 -0.43,0.39 -0.59,0.81s-0.29,0.94 -0.4,1.57s-0.19,1.33 -0.23,2.12s-0.08,1.61 -0.08,2.45z"/>
    </g>
  </g>
  <polygon id="svg_49" points="278.139 192.595 287.399 149.465 255.509 134.465 230.449 201.225" class="st3" style="fill: rgb(230, 230, 230); stroke-linecap: round; stroke-linejoin: round; stroke-miterlimit: 10; stroke-width: 8px; stroke: rgb(226, 226, 226); paint-order: stroke;"/>
  <polyline id="svg_50" points="-78.121 268.885 3.399 134.465 256.399 134.465 229.309 202.175" class="st4" style="fill: rgb(255, 255, 255); stroke-linecap: round; stroke-linejoin: round; stroke-miterlimit: 10; stroke-width: 8px; paint-order: stroke; stroke: rgb(226, 226, 226);"/>
  <polygon id="svg_51" points="-6.431 150.675 248.889 153.235 256.399 134.465 3.399 134.465" class="st5" style="fill: url(#SVGID_1_); opacity: 0.15; paint-order: stroke;"/>
  <g id="svg_52" transform="matrix(1, 0, 0, 1, -162.600616, 98.465294)">
    <path id="svg_53" d="m1,191c61.75,-17.92 124.01,-33.82 186.44,-49.01c62.45,-15.09 125.15,-29.2 188.07,-42.26c15.74,-3.2 31.48,-6.44 47.25,-9.55c15.77,-3.1 31.55,-6.12 47.34,-9.1c31.61,-5.85 63.27,-11.42 95.03,-16.47c31.76,-5.06 63.63,-9.47 95.59,-13.2l11.99,-1.33l12.02,-1.16l12.01,-1.16c4.01,-0.34 8.03,-0.61 12.04,-0.9c16.04,-1.27 32.15,-1.87 48.22,-1.87l-11.98,1.29l-5.98,0.63l-5.97,0.8l-11.93,1.53c-3.97,0.52 -7.94,1.18 -11.9,1.76l-11.89,1.77l-11.87,1.92l-11.87,1.93l-11.84,2.09l-11.85,2.02l-11.83,2.13c-7.89,1.44 -15.78,2.82 -23.65,4.36l-23.63,4.46l-23.62,4.55c-31.47,6.17 -62.92,12.44 -94.36,18.82l-94.27,19.37l-188.55,39.04c-62.91,12.85 -125.82,25.7 -189.01,37.54z" style="paint-order: stroke; fill: rgb(226, 226, 226);"/>
  </g>
  <path id="svg_54" d="M 208.399 163.465 C 208.399 163.465 167.389 155.475 208.399 114.465 C 242.399 80.465 251.399 133.465 251.399 133.465" class="st6" style="stroke-linecap: round; stroke-linejoin: round; stroke-miterlimit: 10; stroke-width: 8px; paint-order: stroke; fill: none; stroke: rgb(226, 226, 226);"/>
  <path id="svg_55" d="M 145.969 163.825 C 145.969 163.825 104.959 155.835 145.969 114.825 C 179.969 80.825 188.969 133.825 188.969 133.825" class="st6" style="stroke-linecap: round; stroke-linejoin: round; stroke-miterlimit: 10; stroke-width: 8px; paint-order: stroke; fill: none; stroke: rgb(226, 226, 226);"/>
  <path id="svg_56" d="M 83.969 160.825 C 83.969 160.825 42.959 152.835 83.969 111.825 C 117.969 77.825 126.969 130.825 126.969 130.825" class="st6" style="stroke-linecap: round; stroke-linejoin: round; stroke-miterlimit: 10; stroke-width: 8px; paint-order: stroke; fill: none; stroke: rgb(226, 226, 226);"/>
  <path id="svg_57" d="M 18.969 163.825 C 18.969 163.825 -22.041 155.835 18.969 114.825 C 52.969 80.825 61.969 133.825 61.969 133.825" class="st6" style="stroke-linecap: round; stroke-linejoin: round; stroke-miterlimit: 10; stroke-width: 8px; paint-order: stroke; fill: none; stroke: rgb(226, 226, 226);"/>
</svg>